<svg width="20" height="16" viewBox="0 0 20 16" fill="none" xmlns="http://www.w3.org/2000/svg">
<path d="M4.02222 7.16271C5.62222 9.44846 8.2 11.3142 11.3444 12.4853L13.7889 10.7084C14.0889 10.4904 14.5333 10.4177 14.9222 10.5146C16.1667 10.8134 17.5111 10.975 18.8889 10.975C19.5 10.975 20 11.3384 20 11.7827V14.6015C20 15.0457 19.5 15.4092 18.8889 15.4092C8.45556 15.4092 0 9.26269 0 1.67853C0 1.23431 0.5 0.87085 1.11111 0.87085H5C5.61111 0.87085 6.11111 1.23431 6.11111 1.67853C6.11111 2.68814 6.33333 3.65736 6.74444 4.56197C6.86667 4.84466 6.77778 5.15965 6.46667 5.38581L4.02222 7.16271Z" fill="#FFF8EE"/>
</svg>
